<mxfile host="65bd71144e">
    <diagram id="_SF6C5hbYV2lqwscpNSv" name="Page-1">
        <mxGraphModel dx="852" dy="270" grid="1" gridSize="10" guides="1" tooltips="1" connect="1" arrows="1" fold="1" page="1" pageScale="1" pageWidth="850" pageHeight="1100" background="none" math="0" shadow="0">
            <root>
                <mxCell id="0"/>
                <mxCell id="1" parent="0"/>
                <mxCell id="4" style="edgeStyle=orthogonalEdgeStyle;rounded=0;orthogonalLoop=1;jettySize=auto;html=1;sketch=1;strokeWidth=2;fontFamily=Lucida Console;fontStyle=0;fontSize=14;" parent="1" source="2" target="3" edge="1">
                    <mxGeometry relative="1" as="geometry"/>
                </mxCell>
                <mxCell id="2" value="Service" style="rounded=0;whiteSpace=wrap;html=1;sketch=1;fillStyle=auto;fillColor=#dae8fc;strokeColor=#6c8ebf;strokeWidth=2;fontFamily=Lucida Console;fontStyle=0;fontSize=14;" parent="1" vertex="1">
                    <mxGeometry x="384" y="150" width="120" height="60" as="geometry"/>
                </mxCell>
                <mxCell id="13" value="" style="edgeStyle=none;html=1;strokeWidth=2;sketch=1;" edge="1" parent="1" source="3" target="12">
                    <mxGeometry relative="1" as="geometry"/>
                </mxCell>
                <mxCell id="3" value="States&lt;br style=&quot;font-size: 14px&quot;&gt;Table" style="shape=cylinder3;whiteSpace=wrap;html=1;boundedLbl=1;backgroundOutline=1;size=15;sketch=1;fillStyle=auto;strokeWidth=2;fontFamily=Lucida Console;fontStyle=0;fontSize=14;fillColor=#f5f5f5;strokeColor=#666666;fontColor=#333333;" parent="1" vertex="1">
                    <mxGeometry x="574" y="140" width="90" height="80" as="geometry"/>
                </mxCell>
                <mxCell id="9" value="" style="edgeStyle=orthogonalEdgeStyle;rounded=0;orthogonalLoop=1;jettySize=auto;html=1;strokeWidth=2;sketch=1;fontSize=14;fontFamily=Lucida Console;" parent="1" source="8" target="2" edge="1">
                    <mxGeometry relative="1" as="geometry"/>
                </mxCell>
                <mxCell id="8" value="Client" style="outlineConnect=0;dashed=0;verticalLabelPosition=bottom;verticalAlign=top;align=center;html=1;shape=mxgraph.aws3.user;gradientColor=none;shadow=0;sketch=1;strokeWidth=2;fontSize=14;fontFamily=Lucida Console;fillColor=#D2D3D3;" parent="1" vertex="1">
                    <mxGeometry x="270" y="148.5" width="45" height="63" as="geometry"/>
                </mxCell>
                <mxCell id="17" style="edgeStyle=none;sketch=1;html=1;entryX=0.5;entryY=0;entryDx=0;entryDy=0;strokeWidth=2;" edge="1" parent="1" source="12" target="14">
                    <mxGeometry relative="1" as="geometry"/>
                </mxCell>
                <mxCell id="18" style="edgeStyle=none;sketch=1;html=1;exitX=0.5;exitY=1;exitDx=0;exitDy=0;entryX=0.5;entryY=0;entryDx=0;entryDy=0;strokeWidth=2;" edge="1" parent="1" source="12" target="15">
                    <mxGeometry relative="1" as="geometry"/>
                </mxCell>
                <mxCell id="19" style="edgeStyle=none;sketch=1;html=1;entryX=0.5;entryY=0;entryDx=0;entryDy=0;strokeWidth=2;" edge="1" parent="1" source="12" target="16">
                    <mxGeometry relative="1" as="geometry"/>
                </mxCell>
                <mxCell id="12" value="Worker" style="whiteSpace=wrap;html=1;fontFamily=Lucida Console;fontSize=14;fontStyle=0;strokeColor=#82b366;strokeWidth=2;fillColor=#d5e8d4;sketch=1;fillStyle=auto;" vertex="1" parent="1">
                    <mxGeometry x="559" y="250" width="120" height="60" as="geometry"/>
                </mxCell>
                <mxCell id="14" value="Downstream Service 1" style="rounded=0;whiteSpace=wrap;html=1;sketch=1;fillStyle=auto;fillColor=#fff2cc;strokeColor=#d6b656;strokeWidth=2;fontFamily=Lucida Console;fontStyle=0;fontSize=14;" vertex="1" parent="1">
                    <mxGeometry x="419" y="340" width="120" height="60" as="geometry"/>
                </mxCell>
                <mxCell id="15" value="Downstream Service 2" style="rounded=0;whiteSpace=wrap;html=1;sketch=1;fillStyle=auto;fillColor=#fff2cc;strokeColor=#d6b656;strokeWidth=2;fontFamily=Lucida Console;fontStyle=0;fontSize=14;" vertex="1" parent="1">
                    <mxGeometry x="559" y="340" width="120" height="60" as="geometry"/>
                </mxCell>
                <mxCell id="16" value="Downstream Service 3" style="rounded=0;whiteSpace=wrap;html=1;sketch=1;fillStyle=auto;fillColor=#fff2cc;strokeColor=#d6b656;strokeWidth=2;fontFamily=Lucida Console;fontStyle=0;fontSize=14;" vertex="1" parent="1">
                    <mxGeometry x="699" y="340" width="120" height="60" as="geometry"/>
                </mxCell>
            </root>
        </mxGraphModel>
    </diagram>
</mxfile>